<?xml version="1.0" encoding="UTF-8" standalone="no"?><!DOCTYPE svg PUBLIC "-//W3C//DTD SVG 1.1//EN" "http://www.w3.org/Graphics/SVG/1.1/DTD/svg11.dtd"><svg width="100%" height="100%" viewBox="0 0 330 330" version="1.1" xmlns="http://www.w3.org/2000/svg" xmlns:xlink="http://www.w3.org/1999/xlink" xml:space="preserve" xmlns:serif="http://www.serif.com/" style="fill-rule:evenodd;clip-rule:evenodd;stroke-linejoin:round;stroke-miterlimit:2;"><g><path d="M165,0c-90.981,0 -165,74.019 -165,165c0,90.981 74.019,165 165,165c90.981,0 165,-74.019 165,-165c0,-90.981 -74.019,-165 -165,-165Zm0,300c-74.44,0 -135,-60.561 -135,-135c0,-74.439 60.56,-135 135,-135c74.44,0 135,60.561 135,135c0,74.439 -60.561,135 -135,135Z" style="fill:#26a69a;fill-rule:nonzero;"/><path d="M226.872,106.664l-84.854,84.853l-38.89,-38.891c-5.857,-5.857 -15.355,-5.858 -21.213,-0.001c-5.858,5.858 -5.858,15.355 0,21.213l49.496,49.498c2.813,2.813 6.628,4.394 10.606,4.394l0.001,0c3.978,0 7.793,-1.581 10.606,-4.393l95.461,-95.459c5.858,-5.858 5.858,-15.355 0,-21.213c-5.858,-5.858 -15.355,-5.859 -21.213,-0.001Z" style="fill:#26a69a;fill-rule:nonzero;"/></g></svg>