<?xml version="1.0" encoding="UTF-8" standalone="no"?><!DOCTYPE svg PUBLIC "-//W3C//DTD SVG 1.1//EN" "http://www.w3.org/Graphics/SVG/1.1/DTD/svg11.dtd"><svg width="100%" height="100%" viewBox="0 0 36 36" version="1.1" xmlns="http://www.w3.org/2000/svg" xmlns:xlink="http://www.w3.org/1999/xlink" xml:space="preserve" xmlns:serif="http://www.serif.com/" style="fill-rule:evenodd;clip-rule:evenodd;stroke-linejoin:round;stroke-miterlimit:2;"><g><path d="M11.811,10.535l-6.983,6.984l6.983,6.981c0.78,0.781 0.78,2.048 0,2.828c-0.392,0.392 -0.901,0.586 -1.414,0.586c-0.513,0 -1.022,-0.194 -1.414,-0.586l-8.397,-8.396c-0.375,-0.374 -0.586,-0.883 -0.586,-1.413c-0,-0.529 0.211,-1.039 0.586,-1.414l8.397,-8.398c0.781,-0.78 2.047,-0.78 2.828,0c0.78,0.781 0.78,2.045 0,2.828Zm22.636,5.569l-8.396,-8.398c-0.781,-0.78 -2.047,-0.78 -2.828,0c-0.781,0.781 -0.781,2.047 0,2.828l6.982,6.984l-6.982,6.982c-0.781,0.781 -0.781,2.048 -0,2.828c0.392,0.392 0.902,0.586 1.414,0.586c0.512,0 1.023,-0.194 1.414,-0.586l8.396,-8.396c0.375,-0.375 0.586,-0.884 0.586,-1.414c0,-0.528 -0.211,-1.039 -0.586,-1.414Zm-13.435,-12.273c-1.076,-0.277 -2.161,0.373 -2.435,1.441l-6,23.498c-0.272,1.07 0.373,2.16 1.442,2.434c0.167,0.043 0.334,0.063 0.497,0.063c0.894,0 1.706,-0.603 1.937,-1.505l6,-23.498c0.274,-1.071 -0.372,-2.16 -1.441,-2.433Z" style="fill:#fff;fill-rule:nonzero;"/></g></svg>