<?xml version="1.0" encoding="UTF-8" standalone="no"?><!DOCTYPE svg PUBLIC "-//W3C//DTD SVG 1.1//EN" "http://www.w3.org/Graphics/SVG/1.1/DTD/svg11.dtd"><svg width="100%" height="100%" viewBox="0 0 490 490" version="1.1" xmlns="http://www.w3.org/2000/svg" xmlns:xlink="http://www.w3.org/1999/xlink" xml:space="preserve" xmlns:serif="http://www.serif.com/" style="fill-rule:evenodd;clip-rule:evenodd;stroke-linejoin:round;stroke-miterlimit:2;"><g><g><g><path d="M220.256,142.705l-0,77.479l-77.479,-0c-13.706,-0 -24.816,11.109 -24.816,24.816c0,13.707 11.11,24.816 24.816,24.816l77.479,0l-0,77.479c-0,13.706 11.11,24.816 24.816,24.816c13.707,-0 24.672,-11.11 24.672,-24.816l0,-77.479l77.479,0c13.706,0 24.816,-11.109 24.816,-24.816c-0,-13.707 -11.11,-24.816 -24.816,-24.816l-77.479,-0l0,-77.479c0,-13.706 -11.11,-24.816 -24.672,-24.816c-13.562,0 -24.816,11.11 -24.816,24.816Z" style="fill:#26a69a;fill-rule:nonzero;"/><path d="M71.7,71.7c-46.2,46.3 -71.7,107.8 -71.7,173.3c0,65.5 25.5,127 71.8,173.3c46.2,46.2 107.8,71.7 173.2,71.7c65.4,0 127,-25.5 173.3,-71.8c46.2,-46.2 71.7,-107.8 71.7,-173.2c0,-65.4 -25.5,-127 -71.8,-173.3c-46.2,-46.2 -107.7,-71.7 -173.2,-71.7c-65.4,0 -127,25.5 -173.3,71.7Zm384,173.3c0,56.3 -21.9,109.2 -61.7,149c-39.8,39.8 -92.7,61.7 -149,61.7c-56.3,0 -109.2,-21.9 -149,-61.7c-39.8,-39.8 -61.7,-92.7 -61.7,-149c0,-56.3 21.9,-109.2 61.7,-149c39.8,-39.8 92.7,-61.7 149,-61.7c56.3,0 109.2,21.9 149,61.7c39.8,39.8 61.7,92.7 61.7,149Z" style="fill:#26a69a;fill-rule:nonzero;"/></g></g></g></svg>