<?xml version="1.0" encoding="UTF-8" standalone="no"?><!DOCTYPE svg PUBLIC "-//W3C//DTD SVG 1.1//EN" "http://www.w3.org/Graphics/SVG/1.1/DTD/svg11.dtd"><svg width="100%" height="100%" viewBox="0 0 433 433" version="1.1" xmlns="http://www.w3.org/2000/svg" xmlns:xlink="http://www.w3.org/1999/xlink" xml:space="preserve" xmlns:serif="http://www.serif.com/" style="fill-rule:evenodd;clip-rule:evenodd;stroke-linejoin:round;stroke-miterlimit:2;"><g><path d="M65.46,129.429c-0,-54.825 44.604,-99.429 99.43,-99.429c54.826,0 99.43,44.604 99.43,99.429c-0,11.408 -1.92,22.602 -5.707,33.27l28.271,10.036c4.934,-13.898 7.436,-28.469 7.436,-43.306c-0,-71.367 -58.062,-129.429 -129.43,-129.429c-71.368,-0 -129.43,58.062 -129.43,129.429c-0,26.908 8.183,52.709 23.664,74.615c15.128,21.405 36.056,37.545 60.522,46.675l10.488,-28.106c-38.683,-14.436 -64.674,-51.884 -64.674,-93.184Z" style="fill:#fff;fill-rule:nonzero;"/><path d="M164.89,80c27.256,0 49.43,22.174 49.43,49.43c-0,0.252 -0.011,0.502 -0.02,0.752l-0.02,0.643l29.988,0.826l0.015,-0.45c0.02,-0.589 0.037,-1.178 0.037,-1.771c-0,-43.798 -35.632,-79.43 -79.43,-79.43c-43.797,0 -79.429,35.632 -79.429,79.43c-0,24.33 10.97,47 30.098,62.197l18.662,-23.489c-11.922,-9.472 -18.76,-23.581 -18.76,-38.708c0,-27.256 22.174,-49.43 49.429,-49.43Z" style="fill:#fff;fill-rule:nonzero;"/><path d="M164.89,129.43l-0,303.138l90.621,-108.802l141.597,0.517l-232.218,-194.853Z" style="fill:#fff;fill-rule:nonzero;"/></g></svg>